<svg width="674" height="757" viewBox="0 0 674 757" fill="none" xmlns="http://www.w3.org/2000/svg">
<path d="M567.644 118.962L562.005 123.364L558.509 123.477L551.967 120.542L547.456 116.818H538.771L537.192 120.316L530.087 121.219L525.688 112.077L521.741 112.416V108.465L514.072 106.547L505.5 98.9845L498.055 99.2102L499.183 90.9709L495.575 83.7474V78.5556L498.959 72.0093L495.575 70.0905L490.274 75.5081L488.131 83.6346L477.078 88.6007L470.311 86.4563L466.702 87.2463L467.717 94.4698L466.026 98.8716L467.717 102.822L461.4 111.964L457.904 112.303L458.242 130.474L457.114 133.973L450.235 131.603L440.197 136.682L438.619 140.068L442.679 150.339L435.799 153.161L437.829 156.208L436.702 159.707L439.859 161.287L430.273 174.154L429.596 176.75L426.437 179.572L430.836 190.068L434.106 192.213L430.272 198.533L426.55 199.436L427.114 210.272L431.738 212.19L437.377 219.188L440.535 229.685L443.016 226.863L447.642 232.168L453.958 246.05L469.86 244.019L473.583 245.712L476.403 243.229L484.184 242.1L490.161 237.134L495.012 237.811V237.698L499.41 238.601L500.088 242.1L503.471 243.342L503.02 246.953L506.742 247.292L508.998 250.226L510.239 254.064L506.742 257.111L509.675 263.206L521.292 265.802L525.126 267.721V271.333L531.216 268.962L532.682 265.802L541.028 260.836L543.848 263.093L547.681 261.852L548.133 251.242L550.727 248.195L554.336 248.646L557.268 244.583L556.93 242.777L567.194 235.441L576.103 240.859L583.209 238.827L589.412 243.454L595.954 240.633L606.555 248.985L607.797 248.195L617.383 254.515L617.947 266.028L621.555 265.802L624.15 272.461L627.534 273.139L626.519 276.976H636.106L639.489 275.734L640.166 271.897L643.775 271.671L644.001 267.721L646.82 265.238L643.211 255.418L646.595 235.892L644.113 222.8L651.67 205.08L653.587 185.215L666.783 167.946L671.744 154.402L661.03 150.565L642.308 149.888L631.706 140.407L623.811 145.712L615.014 144.131L611.744 145.712L608.925 140.745L605.09 138.939L601.594 140.971L601.254 144.696L597.758 143.793L587.607 132.167L585.464 124.831L581.631 122.235L567.644 118.962Z" fill="#FBFBFB"/>
<path d="M378.505 1.12866L357.865 6.32055L340.496 11.7382L333.165 18.0587V40.8579L336.887 45.2597L333.391 43.1152L332.489 50.5645L333.052 55.4178L335.985 57.4494L331.248 59.2552L330.797 63.0927L334.631 70.0905L331.135 68.1718L322.902 79.4585L338.804 93.0025L343.09 103.725L339.256 109.594L341.06 120.768L339.256 130.926L343.767 141.535L338.692 144.809L340.722 148.872L347.827 150.339L355.835 147.969L367.452 150.791L370.271 148.759L384.031 156.772L392.715 158.127L395.309 155.305L398.467 157.337L408.732 153.612L412.116 154.515L414.257 157.675L413.468 161.287L418.43 166.592L430.273 174.154L439.859 161.287L436.701 159.707L437.829 156.208L435.799 153.161L442.679 150.339L438.619 140.068L440.197 136.682L450.234 131.603L457.114 133.973L458.242 130.474L457.905 112.303L461.401 111.964L467.718 102.822L466.026 98.8716L467.718 94.4698L466.703 87.2463H466.251L461.627 85.779L465.8 77.7655L461.965 71.1063L464.56 62.867L461.063 63.6571L455.875 57.4494L448.205 58.8038L441.324 57.2236L438.505 59.7067L435.799 48.1943L428.918 46.5013L427.452 43.1152L423.843 45.8241L419.783 44.4697L415.948 33.7473L416.512 29.9098L411.55 24.3793L404.106 24.9436L397.113 29.7969L393.391 28.2168L389.782 21.5576H385.61L383.918 18.1716L385.271 10.9481L382.001 3.27314L378.505 1.12866Z" fill="#FBFBFB"/>
<path d="M370.271 148.759L367.452 150.791L355.835 147.969L347.827 150.339L340.722 148.872L338.692 144.809L333.729 156.772H328.88L325.834 159.933L328.09 167.382L332.827 175.734L333.391 189.504L341.173 196.389L342.752 203.499L345.572 206.208L349.519 205.418L353.127 218.849L361.925 217.834L364.294 214.335L366.211 217.608L369.708 215.463L374.444 216.141L375.347 220.091L380.648 225.509L379.971 228.895L376.587 230.813L388.204 231.716L402.415 228.33L407.378 221.558L407.603 214.222L427.115 210.272L426.551 199.436L430.273 198.533L434.107 192.213L430.837 190.068L426.438 179.572L429.597 176.75L430.274 174.154L418.432 166.592L413.469 161.287L414.259 157.675L412.117 154.515L408.733 153.612L398.469 157.337L395.311 155.305L392.717 158.127L384.032 156.772L370.271 148.759Z" fill="#FBFBFB"/>
<path d="M476.402 243.229L473.582 245.712L469.859 244.019L453.956 246.05L447.64 232.168L443.017 226.863L440.536 229.685L437.378 219.188L431.739 212.19L427.115 210.271L407.603 214.222L407.377 221.558L402.415 228.33L410.874 237.924L411.438 245.147L405.573 251.355L406.926 255.08L404.896 258.127L398.242 262.303L402.077 265.915L404.896 274.719L401.287 275.509L399.37 278.556L401.851 286.795L399.709 294.132L403.206 296.841L407.153 306.434L407.491 313.884L410.311 316.367L409.973 323.816L408.281 335.103L415.612 343.116L423.732 343.342L427.341 341.197L432.755 345.825L440.312 338.263L448.883 355.306L458.808 359.03L460.838 362.078L460.275 369.076L455.539 374.945V378.782L462.08 382.845L472.231 380.927L474.825 383.635L482.043 378.782L482.493 374.945L485.427 372.574L488.132 374.832L491.066 372.687L494.224 374.719L496.254 371.784L503.472 381.491L510.916 354.967L518.36 356.886L525.127 355.306L531.217 359.369H531.33L536.745 369.188H540.467V373.026L544.188 372.8L549.264 367.383L553.55 369.414L554.001 372.8L558.962 372.687L565.843 368.511L571.821 360.272L571.595 360.159L576.106 344.809L590.994 331.152L589.979 318.85L600.807 311.288L615.695 293.003L615.355 289.391L618.289 286.683L612.875 282.168L614.116 278.443L618.853 273.026L623.814 272.348L624.154 272.461L621.559 265.802L617.951 266.028L617.387 254.515L607.8 248.195L606.558 248.985L595.958 240.633L589.415 243.454L583.212 238.827L576.106 240.858L567.198 235.441L556.933 242.777L557.271 244.583L554.339 248.646L550.73 248.195L548.136 251.242L547.685 261.852L543.851 263.093L541.032 260.836L532.686 265.802L531.219 268.962L534.716 266.818L531.219 268.962L525.129 271.333V267.721L521.295 265.802L509.679 263.206L506.745 257.111L510.243 254.064L509.001 250.226L506.745 247.292L503.023 246.953L503.474 243.342L500.091 242.1L499.413 238.601L495.016 237.698V237.811L490.165 237.134L484.187 242.1L476.402 243.229Z" fill="#FBFBFB"/>
<path d="M388.204 231.716L376.587 230.813L379.971 228.895L380.648 225.509L375.347 220.091L374.444 216.141L369.707 215.463L366.211 217.608L364.294 214.335L361.925 217.834L353.127 218.849L349.519 205.418L345.572 206.208L342.752 203.499L341.173 196.389L333.391 189.504L332.827 175.734L328.09 167.382L320.533 176.186L320.872 179.685L313.315 181.378L309.706 179.346L302.939 183.409L295.383 184.764L292.337 188.037L292.563 192.1L298.541 197.63L298.315 203.387L298.992 209.143L289.405 215.689L290.758 225.17H290.871L293.465 230.023L292.901 232.281V232.393L290.307 234.989L292.563 237.811L293.014 244.809L285.119 258.353L281.059 259.594L280.269 264.109L270.57 269.752L267.074 269.414L267.638 273.59L259.968 270.317L258.953 273.364L256.81 285.102L249.592 304.516V304.628L256.472 308.692L256.81 312.755L260.532 312.416L262.224 320.091L265.72 321.897L278.465 321.333L276.548 317.721L283.427 321.446L283.653 325.396L295.383 341.987L294.255 349.324L300.232 354.854H303.841L307.225 361.739L310.383 363.319L308.353 366.931L311.736 368.286L319.067 366.931L321.21 369.979L324.706 366.367L339.256 365.012L341.624 361.852L358.429 365.238L361.926 364.222L368.13 364.448L372.527 356.886L383.58 355.644L385.723 352.597L383.58 345.825L386.4 343.455L397.114 339.843L403.204 335.103H408.28L409.972 323.816L410.31 316.367L407.49 313.884L407.152 306.434L403.204 296.841L399.708 294.132L401.85 286.795L399.369 278.556L401.286 275.509L404.895 274.719L402.076 265.915L398.241 262.303L404.895 258.127L406.925 255.08L405.572 251.355L411.437 245.147L410.873 237.924L402.414 228.33L388.204 231.716Z" fill="#FBFBFB"/>
<path d="M386.4 343.455L383.58 345.825L385.723 352.597L383.58 355.644L372.527 356.886L368.13 364.448L369.482 369.414C372.641 371.446 375.799 373.477 378.844 375.622L383.468 386.119L382.792 391.31L385.724 399.888L373.882 410.836L379.521 417.834L381.1 424.832L378.844 427.992L381.324 445.599L373.429 443.004L372.641 447.405L363.054 459.482L365.31 462.304L362.376 464.787L362.038 469.077L358.091 470.544L360.008 474.72L355.835 477.202L357.076 484.088L361.926 491.763L359.671 498.987L363.843 505.307L370.385 501.244L378.393 503.276L383.243 497.068L387.077 485.667L393.055 480.25L399.709 485.329L401.287 490.633L404.332 492.665L403.656 496.503L406.925 502.936L415.722 482.845L417.978 485.666L427.79 477.201L430.61 479.346L432.527 486.569L440.648 488.148L440.873 484.536L444.481 484.876L455.874 494.583L458.468 506.095L467.378 524.154L477.189 530.474L486.099 524.945L486.324 528.895L489.482 526.074H492.979L500.649 530.363L500.537 525.735L507.868 526.639L512.38 532.057L523.433 527.091L526.478 528.898L529.636 526.076L530.2 533.412L542.042 534.427L542.156 538.039L548.809 540.974L554.224 534.88L557.156 534.767L558.397 534.541L558.623 528.558L545.991 521.336L544.075 517.95L548.246 511.516L553.436 513.322L556.594 510.162L552.872 507.34L556.03 498.762L563.248 498.311L563.698 494.022L564.94 490.184L571.931 488.605L573.059 484.994L589.074 480.14L592.909 481.607L593.359 474.158L587.834 470.208L585.691 464.903L587.608 460.05L597.42 464.451L600.014 461.967L607.684 460.5V460.387L632.158 449.891L634.639 445.262L633.173 441.99L636.669 435.443L627.421 428.896L624.602 422.011L625.504 418.061L618.398 415.125L614.789 411.739L614.225 407.676L614.339 407.563L624.826 397.292L626.067 393.342L621.781 387.586L611.968 378.218L614.788 370.43L610.164 363.545L610.841 359.933L606.555 359.03L595.84 359.82L589.412 365.125L585.126 363.319L581.517 370.656L584.562 374.493L575.765 381.378L566.855 382.507V382.394L567.533 376.073L574.864 371.559L576.217 362.755L571.818 360.272L565.841 368.511L558.96 372.687L553.998 372.8L553.547 369.414L549.261 367.383L544.186 372.8L540.464 373.026V369.188H536.742L531.328 359.369H531.215L525.124 355.306L518.357 356.886L510.914 354.967L503.47 381.491L496.252 371.784L494.222 374.719L491.064 372.687L488.13 374.832L485.424 372.574L482.491 374.945L482.041 378.782L474.823 383.635L472.229 380.927L462.078 382.845L455.536 378.782V374.945L460.272 369.076L460.836 362.078L458.806 359.03L448.881 355.306L440.309 338.263L432.753 345.825L427.339 341.197L423.73 343.342L415.61 343.116L408.279 335.103H403.203L397.113 339.843L386.4 343.455ZM523.997 520.882L520.953 525.397L515.877 526.977L513.396 524.155L514.974 520.318L518.357 517.496L523.997 520.882Z" fill="#FBFBFB"/>
<path d="M368.129 364.448L361.925 364.222L358.428 365.238L341.623 361.852L339.255 365.012L324.705 366.367L321.209 369.978L319.066 366.931L311.735 368.285L308.352 366.931L310.382 363.319L307.224 361.739L303.84 354.854H300.231L294.254 349.324L295.381 341.987L283.652 325.396L283.426 321.446L276.546 317.721L278.464 321.333L265.719 321.897L262.223 320.091L260.531 312.416L256.809 312.755L256.471 308.692L249.591 304.628L241.132 312.191L238.312 309.256L226.019 309.482L218.914 310.498L214.289 316.592L198.725 317.608L201.545 324.832L206.958 330.024L212.936 352.71L212.598 362.191L215.756 364.674L204.252 370.317L201.319 368.06L193.086 368.398L194.778 364.674L183.612 369.076L177.86 381.265L181.582 382.394L186.77 392.552L183.274 393.116L185.304 399.888L181.582 407.225L175.604 411.289L177.183 416.818L187.108 423.026L200.304 437.134L203.011 446.615V446.728L203.688 450.114L200.981 454.404L197.823 444.471L184.289 431.153L183.048 427.654L179.327 434.877L171.545 498.534L176.508 488.602L182.147 495.148L182.485 498.76L174.365 497.631L170.305 506.322L170.417 512.304L156.545 575.735L151.695 584.765H151.582L145.83 592.778L137.823 598.647L145.154 602.033L145.83 606.097L148.65 603.389L156.996 605.082L158.801 608.693L156.432 616.143L153.161 619.077L154.74 622.689L159.703 623.931L160.267 619.303L163.989 618.174L164.327 622.463L171.771 626.414L183.951 631.154L191.959 630.703L195.23 636.686L205.155 644.811L208.087 642.78L211.02 644.587L218.576 640.636L218.689 640.749V640.636L220.268 629.8L222.298 626.188L226.584 625.173L226.02 621.449L236.283 609.711L235.268 605.873L238.652 604.067L237.975 594.81H234.366L236.171 591.311L233.013 583.975L224.667 583.523L222.637 580.137L228.05 566.029L227.486 558.015L239.216 554.516L240.118 558.353L243.276 556.66L243.614 553.048V552.935L248.351 553.725L250.156 550.565L260.645 551.468L267.074 547.856L277.901 549.098L281.284 547.405L285.796 541.423L289.405 541.761L287.713 538.262L293.352 531.376L290.307 529.57V525.846L299.781 523.363L296.398 511.85L300.683 507.787L306.661 499.661L314.33 495.372L313.428 490.857L319.18 486.793L320.985 480.021L321.887 473.588L332.038 472.684L340.609 480.36L347.263 476.974L355.835 477.199L360.008 474.717L358.091 470.541L362.038 469.074L362.377 464.784L365.31 462.302L363.054 459.48L372.641 447.403L373.429 443.001L381.324 445.597L378.844 427.99L381.1 424.83L379.521 417.832L373.882 410.834L385.724 399.886L382.792 391.308L383.468 386.116L378.844 375.62C375.799 373.475 372.641 371.444 369.482 369.412L368.129 364.448ZM232.674 605.984L232.787 609.483L229.968 607.451L232.674 605.984Z" fill="#FBFBFB"/>
<path d="M201.32 128.669L194.553 131.603L186.433 118.285L189.591 108.352L188.237 104.854L180.004 103.951L176.846 106.208L168.613 106.772L154.176 100.903L153.951 104.515L158.124 106.772L158.801 112.98L156.319 115.576L159.59 128.443L170.305 140.068L168.613 152.822L171.094 156.434L170.417 163.996L167.598 171.219L172.899 183.07L176.169 184.764L179.327 182.732L178.087 186.457L169.177 187.472L175.154 199.549L178.538 200.678L187.561 194.696L194.44 197.63L205.381 198.646L209.554 203.387L212.599 201.355L215.757 203.499L224.328 199.323H235.832L236.735 195.824L240.231 196.163L242.712 203.838L246.772 205.757V209.481L250.607 209.594L264.48 202.258L267.976 204.177L270.006 214.786L279.142 221.107L282.751 219.865L286.811 224.267L290.758 225.17H290.871H290.758L289.405 215.689L298.992 209.143L298.315 203.387L298.541 197.63L292.563 192.1L292.337 188.037L295.383 184.764L302.939 183.409L309.706 179.346L313.315 181.377L320.872 179.684L320.533 176.186L328.09 167.382L325.834 159.933L328.88 156.772H333.729L338.692 144.809L343.767 141.535L339.256 130.926L341.06 120.768L339.256 109.594L343.09 103.725L338.805 93.0025L322.902 79.4585L322.676 79.7971L308.917 89.3908L280.946 96.3885L262.901 106.095L255.57 122.122L257.713 124.944L268.878 127.427L269.104 127.54L267.186 128.33L258.276 130.362L252.186 135.666L239.893 139.165L229.178 134.65L213.388 132.845L201.32 128.669Z" fill="#FBFBFB"/>
<path d="M128.574 182.619L124.063 182.958L110.416 194.244L109.288 189.617L104.213 186.344L104.1 182.393L98.348 172.461L94.6261 171.671L95.4156 168.059L91.5809 168.511L89.4381 172.235L91.1298 163.883L85.1522 167.946L84.4755 163.432L73.3099 168.059L71.5053 165.012L65.7533 169.639L65.3022 177.427L61.2419 178.104L55.0388 174.267L51.4297 175.057L50.6402 179.346L47.8206 175.96L45.7905 180.023L45.6777 171.784L27.4066 177.314L25.4893 173.928L12.6318 180.926L15.9026 182.619L5.30083 181.49L2.93236 184.538L1.12781 195.937L3.3835 198.872L6.87982 197.405L10.1506 198.985L25.7148 194.357L20.9779 196.615L20.3012 200.904L27.8577 199.098L27.2938 202.709L31.0157 204.29L27.0682 205.08L35.0759 208.466L27.5194 206.66L25.7148 203.499L20.9779 204.854L13.6469 203.387L11.504 200.339L9.58664 204.967L12.6318 211.626L14.8875 208.127L18.3838 208.466L25.2637 212.416L26.3915 216.479L24.3614 219.639L21.3162 217.946L5.30083 219.527L3.3835 222.687L15.4514 227.202L20.1884 235.102L18.835 242.1L28.0833 242.89L32.7075 237.585V237.134V237.021L31.6924 233.409L33.0458 233.184L33.497 229.233L35.3015 232.845L33.0458 233.184L32.7075 237.134L36.4293 239.617L42.2941 237.472L48.2717 245.035L51.8808 244.245V240.633L52.332 244.132V244.245L55.6027 243.003L54.8132 246.615L58.4223 247.405L63.272 245.486L63.4976 241.649L64.3999 251.355L67.5579 253.387L71.0542 251.694V251.581L70.4903 244.245L71.167 248.082L74.8889 248.759L72.182 251.468L74.0994 254.854L78.7235 256.773L82.1071 255.305L78.9491 256.886L79.4002 260.385L82.1071 263.996L81.092 268.624L83.7988 271.558L82.3326 267.947L85.7162 264.899L89.7764 263.996L92.8216 266.254L91.2426 258.804L95.1901 265.012L97.1074 261.739L101.732 262.529L104.438 265.576L101.957 268.737L93.9494 267.721L100.04 272.461L115.717 271.22L119.213 273.138L115.378 273.364L117.409 276.637L136.92 270.881L137.371 263.319L144.026 259.03L160.605 258.466L162.635 254.854L174.026 249.888L182.711 254.403L183.275 251.694L187.786 240.746L194.779 237.924L192.41 215.915L194.328 212.98L194.44 197.63L187.561 194.696L178.538 200.678L175.154 199.549L169.177 187.472H154.515L154.853 180.362L150.793 181.265L145.717 186.118L148.988 193.229L146.056 190.858L143.8 185.215H140.191V187.585L135.003 188.037L133.762 184.086L129.928 185.892L128.574 182.619Z" fill="#FBFBFB"/>
<path d="M162.635 254.854L160.605 258.466L144.026 259.03L137.371 263.319L136.92 270.881L117.409 276.637L111.769 282.168L114.815 289.956L122.484 291.31L125.078 293.793L131.281 289.166L140.417 288.376L131.845 291.649L131.056 300.114L127.221 301.694L134.777 304.403L140.868 310.723L130.943 321.22L131.507 326.863L144.702 342.326L147.297 351.243L157.56 359.82L163.65 361.175L165.568 365.69L173.237 367.157L179.102 372.01L180.004 368.511L183.613 369.076L194.779 364.674L193.087 368.398L201.32 368.06L204.253 370.317L215.757 364.674L212.599 362.191L212.937 352.71L206.96 330.024L201.546 324.832L198.726 317.608L214.291 316.592L218.915 310.498L226.02 309.482L238.314 309.256L241.133 312.191L249.592 304.628V304.516L256.81 285.102L258.953 273.364L259.968 270.317L267.638 273.59L267.074 269.414L270.57 269.753L280.269 264.109L281.059 259.594L285.119 258.353L293.014 244.809L292.563 237.811L290.307 234.989L292.901 232.393V232.281L293.465 230.023L290.871 225.17H290.758L286.811 224.267L282.751 219.865L279.142 221.107L270.006 214.786L267.976 204.177L264.48 202.258L250.607 209.594L246.772 209.481V205.757L242.712 203.838L240.231 196.163L236.735 195.825L235.832 199.323H224.328L215.757 203.499L212.599 201.355L209.554 203.387L205.381 198.646L194.44 197.63L194.328 212.98L192.41 215.915L194.779 237.924L187.786 240.746L183.275 251.694L182.711 254.403L174.026 249.888L162.635 254.854Z" fill="#FBFBFB"/>
<path d="M340.609 480.364L332.037 472.688L321.887 473.592L320.985 480.024L319.18 486.796L313.428 490.86L314.33 495.375L306.661 499.664L300.683 507.79L296.398 511.854L299.781 523.366L290.307 525.849V529.574L293.352 531.38L287.713 538.266L289.405 541.765L285.796 541.426L281.284 547.408L277.901 549.101L267.074 547.859L260.645 551.471L250.156 550.568L248.351 553.728L243.614 552.938V553.051L243.276 556.663L240.118 558.356L239.216 554.52L227.486 558.019L228.05 566.032L222.637 580.141L224.667 583.527L233.013 583.978L236.171 591.314L234.366 594.813H237.975L238.652 604.068L235.268 605.874L236.283 609.712L226.02 621.45L226.584 625.175L222.298 626.189L220.268 629.801L218.689 640.637V640.75L232.9 653.391L248.351 651.247L251.509 653.956L264.028 653.73L271.923 654.181L274.856 651.36L274.405 643.119L277.45 641.426L286.021 644.362L298.653 647.634L304.744 653.165L312.864 652.6L320.082 662.194L321.323 658.469L325.609 658.244L339.03 664.677L336.549 670.885L347.715 674.157L350.648 681.38L354.708 681.606L360.348 676.527L364.408 676.301L376.364 679.123L382.229 683.637L390.124 683.073V679.237L400.387 673.932L408.395 672.464L419.223 675.399L411.892 666.256L411.441 644.022L412.005 631.493L419.11 617.949L422.494 614.563L429.375 609.371H437.947L446.405 600.228L460.278 590.183L470.88 587.136L474.602 593.344L478.436 594.247H478.662L483.512 586.797L490.843 584.54L489.601 581.041L494.902 574.946L499.075 576.075L501.443 562.644L512.158 551.133L504.15 543.006L503.921 536.119L500.651 530.363L492.981 526.074H489.485L486.327 528.895L486.101 524.945L477.191 530.476L467.38 524.155L458.47 506.096L455.876 494.584L444.484 484.877L440.875 484.539L440.649 488.15L432.528 486.571L430.611 479.348L427.792 477.203L417.979 485.668L415.724 482.847L406.926 502.938L403.657 496.505L404.333 492.667L401.288 490.636L399.708 485.329L393.054 480.25L387.076 485.667L383.242 497.068L378.392 503.276L370.384 501.244L363.842 505.307L359.67 498.987L361.925 491.763L357.075 484.088L355.834 477.202L347.262 476.978L340.609 480.364Z" fill="#FBFBFB"/>
<path d="M629.45 480.137L621.781 479.798L615.128 475.622L614.113 467.27L610.616 467.157L607.683 460.498L600.013 461.965L597.419 464.448L587.607 460.048L585.69 464.901L587.833 470.206L593.358 474.156L592.908 481.605L589.073 480.138L573.058 484.991L571.93 488.603L564.937 490.182L563.696 494.019L563.246 498.308L556.027 498.76L552.87 507.338L556.591 510.159L553.433 513.32L548.244 511.514L544.072 517.947L545.989 521.333L558.62 528.556L558.395 534.539L557.154 534.765L554.222 534.877L548.807 540.972L542.155 538.038L542.041 534.426L530.199 533.411L529.635 526.075L526.477 528.897L523.433 527.09L512.38 532.056L507.868 526.638L500.537 525.734L500.651 530.363L503.921 536.119L504.147 543.005L512.154 551.131L501.44 562.643L499.071 576.074L494.898 574.945L489.597 581.04L490.839 584.539L483.508 586.796L478.658 594.246L496.817 594.81L499.298 597.97L498.734 601.47L503.358 602.599L515.652 601.132L512.831 598.196L514.409 595.036L517.906 595.374L523.771 602.26L540.463 600.341L545.425 611.514L557.718 614.562L561.214 613.433L561.44 613.659L569.222 618.173L568.771 621.672L580.049 618.4L587.606 620.432L589.072 624.044L591.666 617.046L601.028 618.626L601.141 615.014L608.247 613.434L611.63 610.274L616.48 610.725L619.3 603.839L614.788 601.808L622.57 591.537L629.45 590.633L634.977 580.814L642.195 577.428L643.547 572.124L661.818 562.191L662.496 553.049L670.277 542.102L672.871 536.572L667.796 529.912L652.795 535.217L641.179 529.009L633.171 527.429L625.389 518.061L625.163 517.948L627.645 511.627L622.682 504.742L625.502 502.485L627.193 494.922V494.81L627.419 494.584L629.675 491.875L634.186 491.989L629.45 480.137ZM530.651 592.778L534.824 591.085L532.004 595.826L527.943 597.293L522.191 591.875L522.868 587.586H527.943L530.651 592.778Z" fill="#FBFBFB"/>
<path d="M79.513 286.344L84.4756 284.764L78.0468 280.475L74.4377 280.926L75.5656 285.102L79.513 286.344Z" fill="#FBFBFB"/>
<path d="M165.455 375.396L165.342 375.509L170.981 380.588L174.703 379.008L167.823 374.607L165.455 375.396Z" fill="white"/>
<path d="M176.846 395.035L170.305 390.746L168.162 394.245L176.282 408.467L177.974 404.403L176.846 395.035Z" fill="white"/>
<path d="M642.646 653.388L643.324 639.844L641.068 628.331L637.459 626.977L634.525 629.573L635.089 651.582L624.15 649.889L619.752 656.097L606.105 661.516L605.09 665.126L601.481 665.466L598.773 669.076L599.111 673.478L594.149 679.8L593.472 683.411L596.742 682.169L601.592 687.474L594.938 692.214L596.292 699.211L606.328 704.854L602.945 706.887L599.223 717.495L608.359 714.223L609.6 721.56L606.217 730.475L618.172 732.846L611.969 737.023L611.744 740.86L617.833 746.39L632.045 750.679L633.623 754.291L637.345 755.87L644.79 737.134L640.617 736.796L644 734.199L646.595 727.314L645.692 716.366V708.579L652.572 693.455L647.722 660.497L642.646 653.388Z" fill="#FBFBFB"/>
<path d="M627.194 494.922L627.42 494.584" stroke="black" stroke-width="2" stroke-linecap="round" stroke-linejoin="round"/>
<path d="M232.787 609.483L229.968 607.451L232.674 605.984L232.787 609.483Z" stroke="#91BEAF" stroke-width="2" stroke-linecap="round" stroke-linejoin="round"/>
<path d="M137.823 598.647L145.154 602.033L145.83 606.097L148.65 603.389L156.996 605.082L158.801 608.693L156.432 616.142L153.161 619.076L154.74 622.688L159.703 623.93L160.267 619.302L163.989 618.173L164.327 622.462L171.771 626.413L183.951 631.153L191.959 630.702L195.23 636.685L205.155 644.81L208.087 642.778L211.02 644.585L218.576 640.635L218.689 640.747L232.9 653.388L248.351 651.243L251.509 653.952L264.028 653.727L271.923 654.179L274.856 651.357L274.405 643.117L277.45 641.424L286.021 644.359L298.653 647.632L304.744 653.162L312.864 652.598L320.082 662.192L321.323 658.467L325.609 658.241L339.03 664.675L336.549 670.882L347.715 674.155L350.647 681.379L354.707 681.605L360.346 676.526L364.407 676.3L376.362 679.122L382.227 683.636L390.121 683.072V679.236L400.385 673.931L408.393 672.462L419.22 675.397" stroke="#91BEAF" stroke-width="2" stroke-linecap="round" stroke-linejoin="round"/>
<path d="M661.819 562.192L662.496 553.049L670.278 542.102L672.872 536.57L667.797 529.911L652.796 535.216L641.18 529.008L633.172 527.428L625.39 518.06L625.164 517.947L627.646 511.627L622.683 504.742L625.503 502.485L627.194 494.922V494.81L627.42 494.584L629.676 491.875L634.187 491.988L629.45 480.137L621.781 479.799L615.126 475.622L614.111 467.27L610.615 467.157L607.683 460.498V460.385L632.157 449.89L634.638 445.261L633.172 441.989L636.668 435.441L627.42 428.895L624.6 422.01L625.503 418.06L618.397 415.125L614.788 411.739L614.224 407.676L614.337 407.564L624.826 397.292L626.067 393.342L621.781 387.586L611.968 378.219L614.788 370.43L610.164 363.545L610.841 359.933L606.555 359.03L595.84 359.82L589.412 365.125L585.126 363.319L581.517 370.656L584.562 374.493L575.765 381.378L566.855 382.507V382.394L567.531 376.073L574.862 371.559L576.216 362.755L571.817 360.272L571.592 360.159L576.103 344.809L590.991 331.152L589.975 318.85L600.803 311.288L615.69 293.003L615.352 289.391L618.284 286.683L612.871 282.168L614.111 278.443L618.848 273.026L623.811 272.348L624.149 272.461L627.533 273.138L626.518 276.976H636.104L639.488 275.734L640.165 271.897L643.774 271.671L643.999 267.721L646.819 265.238L643.21 255.418L646.593 235.892L644.112 222.8L651.669 205.08L653.586 185.215L666.782 167.946L671.744 154.402L661.03 150.565L642.308 149.888L631.706 140.407L623.811 145.711L615.014 144.131L611.743 145.711L608.923 140.745L605.089 138.939L601.592 140.971L601.254 144.696L597.758 143.793L587.607 132.167L585.464 124.831L581.629 122.235L567.644 118.962L562.005 123.364L558.509 123.477L551.967 120.542L547.456 116.817H538.771L537.192 120.316L530.087 121.219L525.688 112.077L521.741 112.416V108.465L514.072 106.547L505.5 98.9845L498.056 99.2102L499.184 90.9709L495.575 83.7474V78.5555L498.958 72.0092L495.575 70.0905L490.274 75.5081L488.131 83.6345L477.078 88.6007L470.311 86.4562L466.702 87.2463H466.251L461.627 85.779L465.8 77.7655L461.965 71.1063L464.559 62.867L461.063 63.6571L455.875 57.4494L448.205 58.8038L441.326 57.2236L438.506 59.7067L435.799 48.1943L428.919 46.5013L427.453 43.1152L423.844 45.824L419.784 44.4696L415.949 33.7473L416.513 29.9098L411.55 24.3793L404.107 24.9436L397.114 29.7969L393.392 28.2168L389.783 21.5576H385.61L383.918 18.1716L385.272 10.9481L382.001 3.27314L378.505 1.12866" stroke="#91BEAF" stroke-width="2" stroke-linecap="round" stroke-linejoin="round"/>
<path d="M531.215 268.962L525.125 271.333V267.721L521.29 265.802L509.673 263.206L506.741 257.111L510.237 254.064L508.996 250.226L506.741 247.292L503.019 246.953L503.47 243.342L500.086 242.1L499.41 238.601L495.011 237.698V237.811L490.161 237.134L484.184 242.1L476.402 243.229L473.582 245.712L469.86 244.019L453.958 246.05L447.642 232.168L443.017 226.863L440.536 229.685L437.378 219.188L431.739 212.19L427.115 210.271" stroke="#91BEAF" stroke-width="2" stroke-linecap="round" stroke-linejoin="round"/>
<path d="M427.115 210.272L426.551 199.436L430.273 198.533L434.107 192.213L430.837 190.068L426.438 179.572L429.596 176.75L430.273 174.154" stroke="#91BEAF" stroke-width="2" stroke-linecap="round" stroke-linejoin="round"/>
<path d="M402.415 228.33L388.204 231.716L376.587 230.813L379.971 228.895L380.648 225.509L375.347 220.091L374.445 216.141L369.708 215.463L366.211 217.608L364.294 214.335L361.925 217.834L353.128 218.849L349.519 205.418L345.572 206.208L342.752 203.499L341.173 196.389L333.391 189.504L332.827 175.734L328.09 167.382" stroke="#91BEAF" stroke-width="2" stroke-linecap="round" stroke-linejoin="round"/>
<path d="M427.115 210.271L407.603 214.222L407.378 221.558L402.415 228.33" stroke="#91BEAF" stroke-width="2" stroke-linecap="round" stroke-linejoin="round"/>
<path d="M402.415 228.33L410.874 237.924L411.438 245.147L405.573 251.355L406.926 255.08L404.896 258.127L398.242 262.303L402.077 265.915L404.896 274.719L401.287 275.509L399.37 278.556L401.851 286.795L399.708 294.132L403.204 296.841L407.152 306.434L407.49 313.884L410.31 316.367L409.972 323.816L408.28 335.103" stroke="#91BEAF" stroke-width="2" stroke-linecap="round" stroke-linejoin="round"/>
<path d="M355.835 477.202L360.008 474.72L358.091 470.544L362.038 469.077L362.376 464.787L365.31 462.305L363.054 459.483L372.641 447.407L373.429 443.005L381.324 445.601L378.844 427.993L381.1 424.833L379.521 417.835L373.882 410.838L385.724 399.889L382.792 391.312L383.468 386.12L378.844 375.623C375.799 373.479 372.641 371.447 369.482 369.415L368.13 364.449L372.527 356.887L383.58 355.646L385.723 352.598L383.58 345.826L386.4 343.456L397.114 339.844L403.204 335.104H408.28" stroke="#91BEAF" stroke-width="2" stroke-linecap="round" stroke-linejoin="round"/>
<path d="M419.22 675.397L411.889 666.255L411.438 644.021L412.002 631.492L419.107 617.948L422.491 614.562L429.371 609.37H437.942L446.401 600.228L460.273 590.182L470.875 587.135L474.597 593.343L478.432 594.246H478.657" stroke="#91BEAF" stroke-width="2" stroke-linecap="round" stroke-linejoin="round"/>
<path d="M368.129 364.448L361.925 364.222L358.429 365.238L341.624 361.852L339.256 365.012L324.706 366.367L321.21 369.978L319.067 366.931L311.736 368.285L308.353 366.931L310.383 363.319L307.225 361.739L303.841 354.854H300.232L294.255 349.324L295.383 341.987L283.653 325.396L283.427 321.446L276.548 317.721L278.465 321.333L265.72 321.897L262.224 320.091L260.532 312.416L256.81 312.755L256.472 308.692L249.592 304.628" stroke="#91BEAF" stroke-width="2" stroke-linecap="round" stroke-linejoin="round"/>
<path d="M571.817 360.272L565.84 368.511L558.96 372.687L553.997 372.8L553.546 369.414L549.26 367.383L544.185 372.8L540.463 373.026V369.188H536.741L531.328 359.369H531.215L525.125 355.306L518.357 356.886L510.914 354.967L503.47 381.491L496.252 371.784L494.222 374.719L491.064 372.687L488.131 374.832L485.424 372.574L482.492 374.945L482.041 378.783L474.823 383.635L472.229 380.927L462.078 382.845L455.536 378.783V374.945L460.273 369.076L460.837 362.078L458.807 359.03L448.882 355.306L440.311 338.263L432.754 345.825L427.34 341.197L423.731 343.342L415.611 343.116L408.28 335.103" stroke="#91BEAF" stroke-width="2" stroke-linecap="round" stroke-linejoin="round"/>
<path d="M520.952 525.397L515.876 526.977L513.395 524.155L514.974 520.318L518.358 517.496L523.997 520.882L520.952 525.397Z" stroke="#91BEAF" stroke-width="2" stroke-linecap="round" stroke-linejoin="round"/>
<path d="M624.149 272.461L621.555 265.802L617.946 266.028L617.382 254.515L607.796 248.195L606.555 248.985L595.953 240.633L589.412 243.454L583.208 238.827L576.103 240.859L567.193 235.441L556.93 242.777L557.268 244.583L554.336 248.646L550.727 248.195L548.133 251.242L547.681 261.852L543.847 263.093L541.027 260.836L532.681 265.802L531.215 268.962" stroke="#91BEAF" stroke-width="2" stroke-linecap="round" stroke-linejoin="round"/>
<path d="M531.215 268.962L534.711 266.818" stroke="#91BEAF" stroke-width="2" stroke-linecap="round" stroke-linejoin="round"/>
<path d="M267.186 128.33L258.276 130.362L252.186 135.666L239.893 139.165L229.178 134.651L213.388 132.845L201.32 128.669L194.553 131.603L186.433 118.285L189.591 108.352L188.237 104.854L180.004 103.951L176.846 106.208L168.613 106.772L154.176 100.903L153.951 104.515L158.124 106.772L158.801 112.98L156.319 115.576L159.59 128.443L170.305 140.068L168.613 152.822L171.094 156.434L170.417 163.996L167.598 171.219L172.899 183.071L176.169 184.764L179.327 182.732L178.087 186.457L169.177 187.472" stroke="#91BEAF" stroke-width="2" stroke-linecap="round" stroke-linejoin="round"/>
<path d="M338.692 144.809L343.767 141.535L339.256 130.926L341.06 120.768L339.256 109.594L343.09 103.725L338.804 93.0025L322.902 79.4585" stroke="#91BEAF" stroke-width="2" stroke-linecap="round" stroke-linejoin="round"/>
<path d="M322.902 79.4585L322.676 79.7971L308.917 89.3908L280.946 96.3885L262.901 106.095L255.57 122.122L257.712 124.944L268.878 127.427" stroke="#91BEAF" stroke-width="2" stroke-linecap="round" stroke-linejoin="round"/>
<path d="M268.878 127.427L269.104 127.54L267.186 128.33" stroke="#91BEAF" stroke-width="2" stroke-linecap="round" stroke-linejoin="round"/>
<path d="M268.878 127.427L267.186 128.217V128.33" stroke="#91BEAF" stroke-width="2" stroke-linecap="round" stroke-linejoin="round"/>
<path d="M169.177 187.472H154.515L154.853 180.362L150.793 181.265L145.718 186.118L148.988 193.229L146.056 190.858L143.8 185.215H140.191V187.585L135.003 188.037L133.762 184.086L129.928 185.892L128.574 182.619L124.063 182.958L110.416 194.244L109.288 189.617L104.213 186.344L104.1 182.393L98.348 172.461L94.6261 171.671L95.4156 168.059L91.581 168.511L89.4381 172.235L91.1298 163.883L85.1522 167.946L84.4755 163.432L73.3099 168.059L71.5053 165.012L65.7533 169.639L65.3022 177.427L61.2419 178.104L55.0388 174.267L51.4297 175.057L50.6402 179.346L47.8206 175.96L45.7905 180.023L45.6777 171.784L27.4066 177.314L25.4893 173.928L12.6318 180.926L15.9026 182.619L5.30083 181.49L2.93236 184.538L1.12781 195.937L3.3835 198.872L6.87982 197.405L10.1506 198.985L25.7148 194.357L20.9779 196.615L20.3012 200.904L27.8577 199.098L27.2938 202.709L31.0157 204.29L27.0682 205.08L35.0759 208.466L27.5194 206.66L25.7148 203.499L20.9779 204.854L13.6469 203.387L11.504 200.339L9.58664 204.967L12.6318 211.626L14.8875 208.127L18.3838 208.466L25.2637 212.416L26.3915 216.479L24.3614 219.639L21.3162 217.946L5.30083 219.527L3.3835 222.687L15.4514 227.202L20.1884 235.102L18.835 242.1L28.0833 242.89L32.7075 237.585V237.134" stroke="#91BEAF" stroke-width="2" stroke-linecap="round" stroke-linejoin="round"/>
<path d="M32.7075 237.134L36.4294 239.617L42.2942 237.472L48.2718 245.035L51.8809 244.245V240.633L52.332 244.132V244.245L55.6028 243.003L54.8133 246.615L58.4224 247.405L63.2721 245.486L63.4977 241.649L64.4 251.355L67.5579 253.387L71.0542 251.694V251.581L70.4903 244.245L71.167 248.082L74.8889 248.759L72.1821 251.468L74.0994 254.854L78.7236 256.773L82.1071 255.306L78.9492 256.886L79.4003 260.385L82.1071 263.996L81.0921 268.624L83.7989 271.558L82.3327 267.947L85.7162 264.899L89.7765 263.996L92.8216 266.254L91.2427 258.804L95.1901 265.012L97.1074 261.739L101.732 262.529L104.438 265.576L101.957 268.737L93.9495 267.721L100.04 272.461L115.717 271.22L119.213 273.139L115.379 273.364L117.409 276.637" stroke="#91BEAF" stroke-width="2" stroke-linecap="round" stroke-linejoin="round"/>
<path d="M194.44 197.63L194.328 212.98L192.41 215.915L194.779 237.924L187.786 240.746L183.275 251.694L182.711 254.403L174.027 249.888L162.635 254.854L160.605 258.466L144.026 259.03L137.372 263.319L136.92 270.881L117.409 276.637" stroke="#91BEAF" stroke-width="2" stroke-linecap="round" stroke-linejoin="round"/>
<path d="M33.0459 233.184L35.3016 232.845L33.497 229.233L33.0459 233.184Z" stroke="#91BEAF" stroke-width="2" stroke-linecap="round" stroke-linejoin="round"/>
<path d="M466.702 87.2463L467.717 94.4698L466.025 98.8716L467.717 102.822L461.401 111.964L457.905 112.303L458.243 130.474L457.115 133.973L450.236 131.603L440.198 136.682L438.619 140.068L442.679 150.339L435.799 153.161L437.829 156.208L436.701 159.707L439.859 161.287L430.273 174.154" stroke="#91BEAF" stroke-width="2" stroke-linecap="round" stroke-linejoin="round"/>
<path d="M32.7075 237.134L33.0459 233.184" stroke="#91BEAF" stroke-width="2" stroke-linecap="round" stroke-linejoin="round"/>
<path d="M125.867 310.046L123.499 312.868L131.168 320.317L130.943 316.254L127.108 313.996L125.867 310.046Z" stroke="#91BEAF" stroke-width="2" stroke-linecap="round" stroke-linejoin="round"/>
<path d="M117.409 276.637L111.769 282.168L114.815 289.956L122.484 291.31L125.078 293.793L131.281 289.166L140.417 288.376L131.845 291.649L131.056 300.114L127.221 301.694L134.777 304.403L140.868 310.723L130.943 321.22L131.507 326.863L144.702 342.326L147.297 351.243L157.56 359.82L163.65 361.175L165.568 365.69L173.237 367.157L179.102 372.01L180.004 368.511L183.613 369.076" stroke="#91BEAF" stroke-width="2" stroke-linecap="round" stroke-linejoin="round"/>
<path d="M84.4756 284.764L78.0468 280.475L74.4377 280.926L75.5656 285.102L79.513 286.344L84.4756 284.764Z" stroke="#91BEAF" stroke-width="2" stroke-linecap="round" stroke-linejoin="round"/>
<path d="M165.455 375.396L162.297 372.687L162.41 372.913" stroke="#91BEAF" stroke-width="2" stroke-linecap="round" stroke-linejoin="round"/>
<path d="M162.41 372.913L162.071 372.687L163.537 376.073L164.44 375.735" stroke="#91BEAF" stroke-width="2" stroke-linecap="round" stroke-linejoin="round"/>
<path d="M328.09 167.382L325.834 159.933L328.88 156.772H333.729L338.692 144.809" stroke="#91BEAF" stroke-width="2" stroke-linecap="round" stroke-linejoin="round"/>
<path d="M290.871 225.17H290.758L289.405 215.689L298.992 209.143L298.315 203.387L298.541 197.63L292.563 192.1L292.337 188.037L295.383 184.764L302.939 183.409L309.706 179.346L313.315 181.378L320.872 179.684L320.534 176.186L328.09 167.382" stroke="#91BEAF" stroke-width="2" stroke-linecap="round" stroke-linejoin="round"/>
<path d="M290.871 225.17H290.758L286.811 224.267L282.751 219.865L279.142 221.107L270.006 214.786L267.976 204.177L264.48 202.258L250.607 209.594L246.772 209.481V205.757L242.712 203.838L240.231 196.163L236.735 195.825L235.832 199.323H224.328L215.757 203.499L212.599 201.355L209.554 203.387L205.381 198.646L194.44 197.63" stroke="#91BEAF" stroke-width="2" stroke-linecap="round" stroke-linejoin="round"/>
<path d="M249.592 304.628V304.516L256.81 285.102L258.953 273.364L259.968 270.317L267.638 273.59L267.074 269.414L270.57 269.753L280.269 264.109L281.059 259.594L285.119 258.353L293.014 244.809L292.563 237.811L290.307 234.989L292.901 232.393V232.281L293.465 230.023L290.871 225.17" stroke="#91BEAF" stroke-width="2" stroke-linecap="round" stroke-linejoin="round"/>
<path d="M169.177 187.472L175.154 199.549L178.538 200.678L187.561 194.696L194.44 197.63" stroke="#91BEAF" stroke-width="2" stroke-linecap="round" stroke-linejoin="round"/>
<path d="M249.592 304.628L241.133 312.191L238.314 309.256L226.02 309.482L218.915 310.498L214.291 316.592L198.726 317.608L201.546 324.832L206.96 330.024L212.937 352.71L212.599 362.191L215.757 364.674L204.253 370.317L201.32 368.06L193.087 368.398L194.779 364.674L183.613 369.076" stroke="#91BEAF" stroke-width="2" stroke-linecap="round" stroke-linejoin="round"/>
<path d="M165.455 375.396L165.342 375.509" stroke="#91BEAF" stroke-width="2" stroke-linecap="round" stroke-linejoin="round"/>
<path d="M165.342 375.509L165.229 375.396H165.455" stroke="#91BEAF" stroke-width="2" stroke-linecap="round" stroke-linejoin="round"/>
<path d="M164.44 375.735L165.229 375.509" stroke="#91BEAF" stroke-width="2" stroke-linecap="round" stroke-linejoin="round"/>
<path d="M165.229 375.509H165.342" stroke="#91BEAF" stroke-width="2" stroke-linecap="round" stroke-linejoin="round"/>
<path d="M164.44 375.735L163.65 376.073L162.41 372.913" stroke="#91BEAF" stroke-width="2" stroke-linecap="round" stroke-linejoin="round"/>
<path d="M165.342 375.509L170.981 380.588L174.703 379.008L167.823 374.606L165.455 375.396" stroke="#91BEAF" stroke-width="2" stroke-linecap="round" stroke-linejoin="round"/>
<path d="M162.41 372.913L165.229 375.509" stroke="#91BEAF" stroke-width="2" stroke-linecap="round" stroke-linejoin="round"/>
<path d="M355.835 477.202L347.263 476.978L340.609 480.364L332.037 472.688L321.887 473.592L320.985 480.024L319.18 486.796L313.428 490.859L314.33 495.374L306.661 499.663L300.683 507.789L296.398 511.853L299.781 523.365L290.307 525.848V529.573L293.352 531.379L287.713 538.263L289.405 541.762L285.796 541.424L281.284 547.406L277.901 549.099L267.074 547.857L260.645 551.47L250.156 550.567L248.351 553.727L243.614 552.936V553.049L243.276 556.661L240.118 558.354L239.216 554.517L227.486 558.015L228.05 566.029L222.637 580.137L224.667 583.523L233.013 583.975L236.171 591.311L234.366 594.81H237.975L238.652 604.065L235.268 605.871L236.283 609.708L226.02 621.448L226.584 625.171L222.298 626.187L220.268 629.799L218.689 640.635V640.747" stroke="#91BEAF" stroke-width="2" stroke-linecap="round" stroke-linejoin="round"/>
<path d="M170.305 390.746L168.162 394.245L176.282 408.466L177.974 404.403L176.846 395.035L170.305 390.746Z" stroke="#91BEAF" stroke-width="2" stroke-linecap="round" stroke-linejoin="round"/>
<path d="M183.613 369.076L177.861 381.265L181.583 382.394L186.771 392.552L183.275 393.116L185.305 399.888L181.583 407.225L175.605 411.288L177.184 416.818L187.109 423.026L200.305 437.134L203.012 446.615V446.728L203.689 450.114L200.982 454.404L197.824 444.471L184.29 431.152L183.049 427.654L179.327 434.877L171.545 498.534L176.508 488.602L182.147 495.148L182.485 498.76L174.365 497.631L170.305 506.323L170.417 512.304L156.545 575.736L151.695 584.766H151.582L145.83 592.778L137.823 598.647" stroke="#91BEAF" stroke-width="2" stroke-linecap="round" stroke-linejoin="round"/>
<path d="M430.273 174.154L418.43 166.592L413.468 161.287L414.257 157.675L412.114 154.515L408.731 153.612L398.468 157.337L395.31 155.305L392.716 158.127L384.031 156.772L370.271 148.759L367.452 150.791L355.835 147.969L347.827 150.339L340.722 148.872L338.692 144.809" stroke="#91BEAF" stroke-width="2" stroke-linecap="round" stroke-linejoin="round"/>
<path d="M378.505 1.12866L357.865 6.32055L340.496 11.7382L333.165 18.0587V40.8579L336.887 45.2597L333.391 43.1152L332.489 50.5645L333.052 55.4178L335.985 57.4494L331.248 59.2552L330.797 63.0927L334.631 70.0905L331.135 68.1718L322.902 79.4585" stroke="#91BEAF" stroke-width="2" stroke-linecap="round" stroke-linejoin="round"/>
<path d="M607.683 460.498L600.013 461.965L597.419 464.448L587.607 460.048L585.69 464.9L587.833 470.206L593.359 474.156L592.908 481.604L589.073 480.137L573.058 484.99L571.93 488.602L564.937 490.182L563.697 494.019L563.246 498.308L556.027 498.76L552.869 507.338L556.591 510.159L553.433 513.32L548.245 511.514L544.072 517.947L545.99 521.333L558.621 528.557L558.396 534.54L557.155 534.766L554.223 534.877L548.809 540.973L542.155 538.038L542.042 534.426L530.2 533.411L529.636 526.075L526.478 528.897L523.433 527.09L512.38 532.056L507.868 526.639L500.537 525.735L500.65 530.363" stroke="#91BEAF" stroke-width="2" stroke-linecap="round" stroke-linejoin="round"/>
<path d="M534.824 591.085L532.004 595.826L527.944 597.293L522.192 591.875L522.869 587.588H527.944L530.651 592.778L534.824 591.085Z" stroke="#91BEAF" stroke-width="2" stroke-linecap="round" stroke-linejoin="round"/>
<path d="M33.0458 233.184L31.6924 233.409L32.7074 237.021V237.134" stroke="#91BEAF" stroke-width="2" stroke-linecap="round" stroke-linejoin="round"/>
<path d="M478.657 594.246L496.816 594.81L499.297 597.97L498.733 601.469L503.357 602.598L515.651 601.132L512.831 598.196L514.41 595.036L517.906 595.374L523.771 602.26L540.463 600.34L545.426 611.514L557.719 614.562L561.215 613.433L561.441 613.659L569.223 618.173L568.772 621.672L580.05 618.399L587.607 620.431L589.073 624.043L591.667 617.045L601.028 618.626L601.141 615.013L608.247 613.433L611.63 610.273L616.48 610.725L619.299 603.839L614.788 601.808L622.57 591.538L629.45 590.634L634.977 580.816L642.195 577.43L643.548 572.124L661.819 562.192" stroke="#91BEAF" stroke-width="2" stroke-linecap="round" stroke-linejoin="round"/>
<path d="M500.65 530.363L492.981 526.075H489.485L486.327 528.897L486.101 524.946L477.191 530.476L467.379 524.155L458.469 506.096L455.875 494.584L444.484 484.878L440.874 484.539L440.649 488.15L432.528 486.571L430.611 479.347L427.791 477.202L417.979 485.667L415.724 482.846L406.926 502.937L403.656 496.503L404.332 492.665L401.287 490.634L399.708 485.329L393.054 480.25L387.076 485.667L383.242 497.067L378.392 503.275L370.384 501.244L363.843 505.306L359.67 498.987L361.925 491.762L357.076 484.087L355.835 477.202" stroke="#91BEAF" stroke-width="2" stroke-linecap="round" stroke-linejoin="round"/>
<path d="M478.657 594.246L483.507 586.796L490.838 584.539L489.597 581.041L494.898 574.945L499.071 576.074L501.44 562.643L512.154 551.131L504.147 543.005L503.921 536.119L500.65 530.363" stroke="#91BEAF" stroke-width="2" stroke-linecap="round" stroke-linejoin="round"/>
<path d="M643.323 639.844L641.067 628.331L637.458 626.977L634.525 629.573L635.089 651.582L624.149 649.889L619.751 656.097L606.104 661.516L605.089 665.126L601.48 665.466L598.773 669.076L599.111 673.478L594.149 679.8L593.472 683.411L596.743 682.169L601.592 687.475L594.938 692.215L596.292 699.212L606.329 704.855L602.946 706.888L599.224 717.497L608.359 714.225L609.6 721.561L606.217 730.476L618.172 732.848L611.969 737.023L611.743 740.86L617.833 746.392L632.044 750.681L633.623 754.292L637.345 755.871L644.789 737.137L640.616 736.798L643.999 734.201L646.593 727.316L645.691 716.368V708.581L652.571 693.456L647.721 660.499L642.646 653.388L643.323 639.844Z" stroke="#91BEAF" stroke-width="2" stroke-linecap="round" stroke-linejoin="round"/>
<path d="M593.585 619.415C593.585 619.415 593.472 619.415 593.359 619.415C593.246 619.415 593.246 619.415 593.246 619.415L593.133 619.529C593.133 619.529 593.133 619.529 593.02 619.642C593.02 619.642 593.02 619.642 593.02 619.756V619.869C593.02 619.982 593.02 620.095 593.02 620.095C593.02 620.208 593.133 620.208 593.133 620.208C593.133 620.322 593.246 620.322 593.246 620.322C593.359 620.322 593.359 620.322 593.359 620.322C593.473 620.322 593.473 620.322 593.473 620.322C593.586 620.322 593.586 620.322 593.586 620.322C593.586 620.322 593.586 620.322 593.7 620.322V620.205H593.585C593.585 620.205 593.472 620.205 593.359 620.205C593.246 620.205 593.246 620.205 593.246 620.093C593.246 620.093 593.133 620.093 593.133 619.979C593.133 619.979 593.133 619.979 593.133 619.866V619.753C593.133 619.641 593.246 619.641 593.246 619.641C593.246 619.528 593.359 619.528 593.359 619.528C593.473 619.528 593.473 619.528 593.585 619.528C593.585 619.528 593.585 619.528 593.698 619.528V619.415H593.585Z" fill="#91BEAF"/>
<path d="M594.374 619.528C594.487 619.528 594.487 619.528 594.487 619.528C594.487 619.641 594.487 619.641 594.487 619.641V619.755V620.319H594.712V619.641C594.712 619.641 594.826 619.641 594.826 619.528H594.939C595.052 619.528 595.052 619.528 595.052 619.528C595.052 619.641 595.052 619.641 595.052 619.641V619.755V620.319H595.277V619.755C595.277 619.641 595.277 619.641 595.277 619.529C595.277 619.529 595.277 619.529 595.165 619.415H595.051C594.938 619.415 594.826 619.415 594.826 619.415C594.712 619.528 594.712 619.528 594.712 619.528C594.6 619.528 594.6 619.528 594.487 619.414C594.487 619.414 594.487 619.414 594.374 619.414H594.261C594.261 619.414 594.261 619.414 594.147 619.414C594.147 619.414 594.147 619.414 594.147 619.528C594.147 619.528 594.147 619.528 594.035 619.528V619.415H593.923V620.319H594.037V619.641C594.15 619.641 594.15 619.641 594.15 619.528C594.261 619.528 594.261 619.528 594.374 619.528Z" fill="#91BEAF"/>
<path d="M595.84 619.415H595.728H595.615V619.529H595.729C595.841 619.529 595.841 619.529 595.841 619.529C595.955 619.529 596.067 619.529 596.067 619.529L596.18 619.642C596.18 619.756 596.18 619.756 596.18 619.756V619.869C596.067 619.756 596.067 619.756 596.067 619.756C595.954 619.756 595.954 619.756 595.954 619.756C595.84 619.756 595.84 619.756 595.729 619.756L595.615 619.869C595.615 619.869 595.615 619.869 595.615 619.982C595.615 619.982 595.502 619.982 595.502 620.096L595.615 620.208V620.322C595.615 620.322 595.615 620.322 595.729 620.322H595.841C595.955 620.322 595.955 620.322 595.955 620.322H596.068C596.181 620.322 596.181 620.208 596.181 620.208V620.322H596.295V619.758C596.295 619.644 596.295 619.644 596.295 619.644C596.295 619.644 596.181 619.644 596.181 619.531C596.181 619.531 596.181 619.531 596.181 619.417C596.068 619.417 596.068 619.417 595.956 619.417C595.84 619.415 595.84 619.415 595.84 619.415ZM596.179 619.979V620.093C596.179 620.093 596.179 620.093 596.179 620.206C596.066 620.206 596.066 620.206 596.066 620.206C596.066 620.206 596.066 620.206 595.953 620.206C595.953 620.206 595.953 620.206 595.839 620.206H595.726C595.726 620.206 595.726 620.206 595.726 620.093C595.612 620.093 595.613 620.093 595.613 620.093C595.613 619.979 595.726 619.979 595.726 619.979C595.839 619.866 595.839 619.866 595.952 619.866H596.065C596.066 619.866 596.179 619.866 596.179 619.979Z" fill="#91BEAF"/>
<path d="M597.306 619.641V619.528C597.306 619.414 597.194 619.414 597.194 619.414C597.194 619.414 597.081 619.414 596.968 619.414C596.855 619.414 596.855 619.414 596.742 619.414C596.742 619.414 596.742 619.414 596.742 619.528V619.415H596.63V620.769H596.742V620.205C596.742 620.319 596.742 620.319 596.856 620.319H596.969C597.083 620.319 597.083 620.319 597.083 620.319C597.196 620.319 597.196 620.319 597.196 620.319H597.309C597.309 620.205 597.309 620.205 597.309 620.205C597.309 620.092 597.309 620.092 597.309 620.092C597.423 619.978 597.423 619.978 597.423 619.866C597.423 619.755 597.419 619.755 597.306 619.641ZM596.968 619.528C597.082 619.528 597.082 619.528 597.082 619.528C597.195 619.528 597.195 619.528 597.195 619.641C597.195 619.641 597.195 619.641 597.307 619.755V619.868C597.307 619.98 597.307 619.98 597.307 620.093C597.195 620.093 597.195 620.093 597.195 620.206H597.082H596.968H596.855C596.741 620.206 596.741 620.206 596.741 620.093V619.641V619.528C596.855 619.528 596.855 619.528 596.855 619.528C596.968 619.528 596.968 619.528 596.968 619.528Z" fill="#91BEAF"/>
</svg>
