<?xml version="1.0" encoding="UTF-8" standalone="no"?>
<!DOCTYPE svg PUBLIC "-//W3C//DTD SVG 1.1//EN" "http://www.w3.org/Graphics/SVG/1.1/DTD/svg11.dtd">
<svg width="100%" height="100%" viewBox="0 0 722 356" version="1.1" xmlns="http://www.w3.org/2000/svg" xmlns:xlink="http://www.w3.org/1999/xlink" xml:space="preserve" xmlns:serif="http://www.serif.com/" style="fill-rule:evenodd;clip-rule:evenodd;stroke-miterlimit:2;">
    <g transform="matrix(1,0,0,1,-54,-236)">
        <g id="Plan-de-travail2" serif:id="Plan de travail2" transform="matrix(1,0,0,1,-0.0635295,-0.44921)">
            <rect x="54.064" y="236.449" width="721.511" height="355.776" style="fill:none;"/>
            <clipPath id="_clip1">
                <rect x="54.064" y="236.449" width="721.511" height="355.776"/>
            </clipPath>
            <g clip-path="url(#_clip1)">
                <g transform="matrix(2.20232,0,0,2.20232,7.37281,175.557)">
                    <g transform="matrix(0.874408,0,0,0.874408,22.9076,29.3827)">
                        <rect x="4.25" y="4.42" width="368.5" height="178.58" style="fill:rgb(35,48,55);"/>
                    </g>
                    <g transform="matrix(0.874408,0,0,0.874408,22.9076,29.3827)">
                        <rect x="0.5" y="0.67" width="367.5" height="177.58" style="fill:rgb(0,157,109);"/>
                    </g>
                    <g transform="matrix(0.874408,0,0,0.874408,22.9076,29.3827)">
                        <rect x="0.5" y="0.67" width="367.5" height="177.58" style="fill:none;stroke:rgb(35,48,55);stroke-width:2.16px;"/>
                    </g>
                    <g transform="matrix(0.874408,0,0,0.874408,22.9076,29.3827)">
                        <path d="M54.781,61.746L77.385,61.746L78.49,69.078L110.158,69.078L93.824,10.266L60.736,10.266L19.085,69.078L50.753,69.078L54.781,61.746ZM63.228,47.784L72.666,29.844L73.758,29.844C73.751,32.34 73.726,34.914 74.046,37.41L75.24,47.784L63.228,47.784Z" style="fill:white;fill-rule:nonzero;"/>
                    </g>
                    <g transform="matrix(0.874408,0,0,0.874408,22.9076,29.3827)">
                        <path d="M200.622,10.266L192.908,45.054C189.102,62.214 172.304,70.014 149.263,70.014C126.222,70.014 112.882,62.214 116.687,45.054L124.4,10.266L154.321,10.266L147.057,43.026C146.037,47.628 145.355,51.684 153.327,51.684C161.298,51.684 162.416,47.628 163.437,43.026L170.701,10.266L200.622,10.266Z" style="fill:white;fill-rule:nonzero;"/>
                    </g>
                    <g transform="matrix(0.874408,0,0,0.874408,22.9076,29.3827)">
                        <path d="M203.569,10.266L266.467,10.266L262.23,29.376L245.862,28.83L236.938,69.078L207.017,69.078L215.942,28.83L199.332,29.376L203.569,10.266Z" style="fill:white;fill-rule:nonzero;"/>
                    </g>
                    <g transform="matrix(0.874408,0,0,0.874408,22.9076,29.3827)">
                        <path d="M312.539,9.33C287.532,9.33 264.339,21.342 260.239,39.828C256.053,58.704 273.967,70.014 299.083,70.014C324.199,70.014 347.126,58.704 351.312,39.828C355.411,21.342 337.545,9.33 312.539,9.33ZM308.25,28.674C317.75,28.674 322.488,33.9 321.104,40.14C319.617,46.848 312.262,51.45 303.199,51.45C294.135,51.45 288.823,46.848 290.31,40.14C291.694,33.9 298.75,28.674 308.25,28.674Z" style="fill:white;fill-rule:nonzero;"/>
                    </g>
                    <g transform="matrix(0.874408,0,0,0.874408,22.9076,29.3827)">
                        <path d="M49.664,149.49C56.161,148.179 59.683,141.969 59.683,134.793C59.683,123.684 52.821,118.785 43.774,118.785L25.983,118.785L25.983,170.811L37.884,170.811L37.884,150.801L38.005,150.801L49.239,170.811L64.054,170.811L49.664,149.49ZM37.884,129.135L39.038,129.135C42.924,129.135 47.295,129.963 47.295,135.621C47.295,141.279 42.924,142.107 39.038,142.107L37.884,142.107L37.884,129.135Z" style="fill:white;fill-rule:nonzero;"/>
                    </g>
                    <g transform="matrix(0.874408,0,0,0.874408,22.9076,29.3827)">
                        <path d="M74.19,130.239L74.19,138.933L87.609,138.933L87.609,150.387L74.19,150.387L74.19,159.357L88.338,159.357L88.338,170.811L62.289,170.811L62.289,118.785L88.338,118.785L88.338,130.239L74.19,130.239Z" style="fill:white;fill-rule:nonzero;"/>
                    </g>
                    <g transform="matrix(0.874408,0,0,0.874408,22.9076,29.3827)">
                        <path d="M123.423,136.242C120.994,132.516 117.047,130.515 112.979,130.515C105.693,130.515 100.774,136.863 100.774,144.936C100.774,153.147 105.753,159.081 113.161,159.081C117.047,159.081 120.934,156.942 123.423,153.561L123.423,169.776C119.476,171.156 116.622,172.191 112.918,172.191C106.543,172.191 100.471,169.431 95.734,164.532C90.694,159.357 88.387,152.595 88.387,144.867C88.387,137.76 90.755,130.929 95.127,125.823C99.62,120.579 106.118,117.405 112.554,117.405C116.379,117.405 119.901,118.371 123.423,120.027L123.423,136.242Z" style="fill:white;fill-rule:nonzero;"/>
                    </g>
                    <g transform="matrix(0.874408,0,0,0.874408,22.9076,29.3827)">
                        <path d="M120.746,118.785L135.015,118.785L143.577,132.93L152.138,118.785L166.407,118.785L149.527,145.833L149.527,170.811L137.626,170.811L137.626,145.833L120.746,118.785Z" style="fill:white;fill-rule:nonzero;"/>
                    </g>
                    <g transform="matrix(0.874408,0,0,0.874408,22.9076,29.3827)">
                        <path d="M196.88,136.242C194.452,132.516 190.505,130.515 186.437,130.515C179.15,130.515 174.232,136.863 174.232,144.936C174.232,153.147 179.211,159.081 186.619,159.081C190.505,159.081 194.391,156.942 196.88,153.561L196.88,169.776C192.934,171.156 190.081,172.191 186.376,172.191C180,172.191 173.929,169.431 169.192,164.532C164.152,159.357 161.845,152.595 161.845,144.867C161.845,137.76 164.213,130.929 168.585,125.823C173.079,120.579 179.576,117.405 186.012,117.405C189.837,117.405 193.359,118.371 196.88,120.027L196.88,136.242Z" style="fill:white;fill-rule:nonzero;"/>
                    </g>
                    <g transform="matrix(0.874408,0,0,0.874408,22.9076,29.3827)">
                        <path d="M211.057,159.356L225.327,159.356L225.327,170.81L199.156,170.81L199.156,118.784L211.057,118.784L211.057,159.356Z" style="fill:white;fill-rule:nonzero;"/>
                    </g>
                    <g transform="matrix(0.874408,0,0,0.874408,22.9076,29.3827)">
                        <path d="M256.424,161.771L259.4,170.81L272.09,170.81L254.846,118.784L241.852,118.784L224.243,170.81L236.873,170.81L240.03,161.771L256.424,161.771ZM253.207,151.421L243.309,151.421L248.227,134.861L248.349,134.861L253.207,151.421Z" style="fill:white;fill-rule:nonzero;"/>
                    </g>
                    <g transform="matrix(0.874408,0,0,0.874408,22.9076,29.3827)">
                        <path d="M316.462,141.761C316.341,149.351 315.855,155.837 311.787,162.323C307.293,169.43 300.553,172.535 292.903,172.535C278.512,172.535 268.494,161.426 268.494,145.073C268.494,128.168 278.573,117.059 293.328,117.059C302.74,117.059 310.026,121.889 313.973,131.618L302.679,137C301.04,132.032 297.579,128.72 292.782,128.72C284.949,128.72 280.88,137.207 280.88,145.142C280.88,153.215 285.13,161.426 292.963,161.426C298.125,161.426 302.072,158.39 302.557,152.387L292.842,152.387L292.842,141.761L316.462,141.761Z" style="fill:white;fill-rule:nonzero;"/>
                    </g>
                    <g transform="matrix(0.874408,0,0,0.874408,22.9076,29.3827)">
                        <path d="M328.836,130.238L328.836,138.932L342.256,138.932L342.256,150.386L328.836,150.386L328.836,159.356L342.985,159.356L342.985,170.81L316.936,170.81L316.936,118.784L342.985,118.784L342.985,130.238L328.836,130.238Z" style="fill:white;fill-rule:nonzero;"/>
                    </g>
                    <g transform="matrix(0.874408,0,0,0.874408,22.9076,29.3827)">
                        <rect x="0" y="76.7" width="368.5" height="34.02" style="fill:rgb(35,48,55);"/>
                    </g>
                    <g transform="matrix(0.874408,0,0,0.874408,22.9076,29.3827)">
                        <path d="M21.244,89.491L24.354,89.491L24.354,91.155L19.046,91.155L19.046,81.353L21.244,81.353L21.244,89.491Z" style="fill:white;fill-rule:nonzero;"/>
                    </g>
                    <g transform="matrix(0.874408,0,0,0.874408,22.9076,29.3827)">
                        <path d="M30.272,83.017L30.272,85.175L33.77,85.175L33.77,86.839L30.272,86.839L30.272,89.491L33.905,89.491L33.905,91.155L28.074,91.155L28.074,81.353L33.905,81.353L33.905,83.017L30.272,83.017Z" style="fill:white;fill-rule:nonzero;"/>
                    </g>
                    <g transform="matrix(0.874408,0,0,0.874408,22.9076,29.3827)">
                        <path d="M54.585,85.071L54.555,85.071L51.998,91.285L51.236,91.285L48.769,85.071L48.739,85.071L47.737,91.155L45.525,91.155L47.423,81.093L48.978,81.093L51.759,87.554L54.42,81.093L56.005,81.093L57.694,91.155L55.481,91.155L54.585,85.071Z" style="fill:white;fill-rule:nonzero;"/>
                    </g>
                    <g transform="matrix(0.874408,0,0,0.874408,22.9076,29.3827)">
                        <path d="M67.904,89.088L68.771,91.155L71.118,91.155L66.843,81.093L65.138,81.093L60.743,91.155L63.06,91.155L63.987,89.088L67.904,89.088ZM67.291,87.528L64.615,87.528L65.856,83.966L65.886,83.966L67.291,87.528Z" style="fill:white;fill-rule:nonzero;"/>
                    </g>
                    <g transform="matrix(0.874408,0,0,0.874408,22.9076,29.3827)">
                        <path d="M84.764,85.942L84.764,86.189C84.764,88.959 83.135,91.415 79.637,91.415C76.348,91.415 74.27,88.997 74.27,86.293C74.27,83.498 76.407,81.093 79.771,81.093C81.685,81.093 83.359,81.939 84.226,83.433L82.283,84.343C81.834,83.46 80.877,82.783 79.711,82.783C77.588,82.783 76.542,84.668 76.542,86.293C76.542,87.918 77.604,89.725 79.726,89.725C81.102,89.725 82.253,88.685 82.297,87.502L79.906,87.502L79.906,85.942L84.764,85.942Z" style="fill:white;fill-rule:nonzero;"/>
                    </g>
                    <g transform="matrix(0.874408,0,0,0.874408,22.9076,29.3827)">
                        <path d="M95.091,89.088L95.959,91.155L98.306,91.155L94.03,81.093L92.326,81.093L87.93,91.155L90.248,91.155L91.174,89.088L95.091,89.088ZM94.479,87.528L91.802,87.528L93.043,83.966L93.073,83.966L94.479,87.528Z" style="fill:white;fill-rule:nonzero;"/>
                    </g>
                    <g transform="matrix(0.874408,0,0,0.874408,22.9076,29.3827)">
                        <path d="M109.44,89.491L109.44,91.155L101.263,91.155L106.226,83.017L102.025,83.017L102.025,81.353L109.709,81.353L104.761,89.491L109.44,89.491Z" style="fill:white;fill-rule:nonzero;"/>
                    </g>
                    <g transform="matrix(0.874408,0,0,0.874408,22.9076,29.3827)">
                        <rect x="113.611" y="81.353" width="2.198" height="9.802" style="fill:white;fill-rule:nonzero;"/>
                    </g>
                    <g transform="matrix(0.874408,0,0,0.874408,22.9076,29.3827)">
                        <path d="M120.427,81.093L122.011,81.093L127.946,87.944L127.977,87.944L127.977,81.353L130.173,81.353L130.173,91.35L128.589,91.35L122.654,84.499L122.625,84.499L122.625,91.155L120.427,91.155L120.427,81.093Z" style="fill:white;fill-rule:nonzero;"/>
                    </g>
                    <g transform="matrix(0.874408,0,0,0.874408,22.9076,29.3827)">
                        <path d="M136.988,83.017L136.988,85.175L140.486,85.175L140.486,86.839L136.988,86.839L136.988,89.491L140.621,89.491L140.621,91.155L134.791,91.155L134.791,81.353L140.621,81.353L140.621,83.017L136.988,83.017Z" style="fill:white;fill-rule:nonzero;"/>
                    </g>
                    <g transform="matrix(0.874408,0,0,0.874408,22.9076,29.3827)">
                        <path d="M152.906,91.155L156.03,91.155C159.245,91.155 161.487,89.023 161.487,86.267C161.487,83.472 159.305,81.353 156.045,81.353L152.906,81.353L152.906,91.155ZM155.104,83.017L155.462,83.017C157.959,83.017 159.215,84.122 159.215,86.254C159.215,88.191 158.168,89.491 155.462,89.491L155.104,89.491L155.104,83.017Z" style="fill:white;fill-rule:nonzero;"/>
                    </g>
                    <g transform="matrix(0.874408,0,0,0.874408,22.9076,29.3827)">
                        <path d="M167.781,83.017L167.781,85.175L171.279,85.175L171.279,86.839L167.781,86.839L167.781,89.491L171.414,89.491L171.414,91.155L165.583,91.155L165.583,81.353L171.414,81.353L171.414,83.017L167.781,83.017Z" style="fill:white;fill-rule:nonzero;"/>
                    </g>
                    <g transform="matrix(0.874408,0,0,0.874408,22.9076,29.3827)">
                        <path d="M181.203,83.511C180.785,83.017 180.246,82.705 179.514,82.705C178.811,82.705 178.138,83.173 178.138,83.81C178.138,85.461 182.608,84.773 182.608,88.061C182.608,90.024 181.203,91.415 178.901,91.415C177.346,91.415 176.21,90.635 175.433,89.504L176.853,88.295C177.152,89.049 177.944,89.725 178.886,89.725C179.783,89.725 180.336,89.063 180.336,88.308C180.336,87.294 179.26,87.008 178.377,86.71C176.927,86.189 175.866,85.552 175.866,84.031C175.866,82.406 177.256,81.093 179.155,81.093C180.157,81.093 181.547,81.523 182.235,82.185L181.203,83.511Z" style="fill:white;fill-rule:nonzero;"/>
                    </g>
                    <g transform="matrix(0.874408,0,0,0.874408,22.9076,29.3827)">
                        <path d="M196.76,87.489L197.852,87.489C200.154,87.489 201.455,86.475 201.455,84.396C201.455,82.172 199.915,81.353 197.552,81.353L194.563,81.353L194.563,91.155L196.76,91.155L196.76,87.489ZM196.76,82.939L197.149,82.939C198.375,82.939 199.212,83.121 199.212,84.382C199.212,85.656 198.509,85.903 197.208,85.903L196.76,85.903L196.76,82.939Z" style="fill:white;fill-rule:nonzero;"/>
                    </g>
                    <g transform="matrix(0.874408,0,0,0.874408,22.9076,29.3827)">
                        <path d="M209.914,87.022C211.423,86.8 212.216,85.552 212.216,84.304C212.216,82.211 210.676,81.353 208.449,81.353L205.474,81.353L205.474,91.155L207.671,91.155L207.671,87.203L207.702,87.203L210.437,91.155L213.098,91.155L209.914,87.022ZM207.671,82.913L207.97,82.913C209.136,82.913 210.018,83.148 210.018,84.356C210.018,85.552 209.167,85.864 207.956,85.864L207.671,85.864L207.671,82.913Z" style="fill:white;fill-rule:nonzero;"/>
                    </g>
                    <g transform="matrix(0.874408,0,0,0.874408,22.9076,29.3827)">
                        <path d="M221.872,91.415C225.161,91.415 227.448,89.049 227.448,86.241C227.448,83.498 225.161,81.093 221.872,81.093C218.583,81.093 216.295,83.498 216.295,86.241C216.295,89.049 218.583,91.415 221.872,91.415ZM221.872,82.978C223.8,82.978 225.175,84.577 225.175,86.163C225.175,87.646 223.741,89.53 221.872,89.53C220.003,89.53 218.568,87.646 218.568,86.163C218.568,84.577 219.943,82.978 221.872,82.978Z" style="fill:white;fill-rule:nonzero;"/>
                    </g>
                    <g transform="matrix(0.874408,0,0,0.874408,22.9076,29.3827)">
                        <path d="M233.742,83.017L233.742,85.175L236.926,85.175L236.926,86.839L233.742,86.839L233.742,91.155L231.544,91.155L231.544,81.353L237.135,81.353L237.135,83.017L233.742,83.017Z" style="fill:white;fill-rule:nonzero;"/>
                    </g>
                    <g transform="matrix(0.874408,0,0,0.874408,22.9076,29.3827)">
                        <path d="M243.682,83.017L243.682,85.175L247.18,85.175L247.18,86.839L243.682,86.839L243.682,89.491L247.315,89.491L247.315,91.155L241.484,91.155L241.484,81.353L247.315,81.353L247.315,83.017L243.682,83.017Z" style="fill:white;fill-rule:nonzero;"/>
                    </g>
                    <g transform="matrix(0.874408,0,0,0.874408,22.9076,29.3827)">
                        <path d="M257.104,83.511C256.685,83.017 256.147,82.705 255.415,82.705C254.711,82.705 254.04,83.173 254.04,83.81C254.04,85.461 258.509,84.773 258.509,88.061C258.509,90.024 257.104,91.415 254.801,91.415C253.247,91.415 252.111,90.635 251.333,89.504L252.753,88.295C253.052,89.049 253.845,89.725 254.787,89.725C255.684,89.725 256.237,89.063 256.237,88.308C256.237,87.294 255.161,87.008 254.279,86.71C252.829,86.189 251.767,85.552 251.767,84.031C251.767,82.406 253.157,81.093 255.056,81.093C256.057,81.093 257.448,81.523 258.135,82.185L257.104,83.511Z" style="fill:white;fill-rule:nonzero;"/>
                    </g>
                    <g transform="matrix(0.874408,0,0,0.874408,22.9076,29.3827)">
                        <path d="M267.986,83.511C267.567,83.017 267.029,82.705 266.296,82.705C265.593,82.705 264.921,83.173 264.921,83.81C264.921,85.461 269.391,84.773 269.391,88.061C269.391,90.024 267.986,91.415 265.683,91.415C264.128,91.415 262.993,90.635 262.215,89.504L263.635,88.295C263.934,89.049 264.727,89.725 265.668,89.725C266.566,89.725 267.119,89.063 267.119,88.308C267.119,87.294 266.042,87.008 265.16,86.71C263.71,86.189 262.649,85.552 262.649,84.031C262.649,82.406 264.039,81.093 265.938,81.093C266.939,81.093 268.33,81.523 269.017,82.185L267.986,83.511Z" style="fill:white;fill-rule:nonzero;"/>
                    </g>
                    <g transform="matrix(0.874408,0,0,0.874408,22.9076,29.3827)">
                        <rect x="273.56" y="81.353" width="2.198" height="9.802" style="fill:white;fill-rule:nonzero;"/>
                    </g>
                    <g transform="matrix(0.874408,0,0,0.874408,22.9076,29.3827)">
                        <path d="M285.415,91.415C288.704,91.415 290.991,89.049 290.991,86.241C290.991,83.498 288.704,81.093 285.415,81.093C282.125,81.093 279.837,83.498 279.837,86.241C279.837,89.049 282.125,91.415 285.415,91.415ZM285.415,82.978C287.342,82.978 288.718,84.577 288.718,86.163C288.718,87.646 287.283,89.53 285.415,89.53C283.545,89.53 282.11,87.646 282.11,86.163C282.11,84.577 283.486,82.978 285.415,82.978Z" style="fill:white;fill-rule:nonzero;"/>
                    </g>
                    <g transform="matrix(0.874408,0,0,0.874408,22.9076,29.3827)">
                        <path d="M295.086,81.093L296.671,81.093L302.606,87.944L302.636,87.944L302.636,81.353L304.833,81.353L304.833,91.35L303.25,91.35L297.314,84.499L297.285,84.499L297.285,91.155L295.086,91.155L295.086,81.093Z" style="fill:white;fill-rule:nonzero;"/>
                    </g>
                    <g transform="matrix(0.874408,0,0,0.874408,22.9076,29.3827)">
                        <path d="M309.451,81.093L311.035,81.093L316.97,87.944L317,87.944L317,81.353L319.198,81.353L319.198,91.35L317.613,91.35L311.678,84.499L311.648,84.499L311.648,91.155L309.451,91.155L309.451,81.093Z" style="fill:white;fill-rule:nonzero;"/>
                    </g>
                    <g transform="matrix(0.874408,0,0,0.874408,22.9076,29.3827)">
                        <path d="M326.012,83.017L326.012,85.175L329.51,85.175L329.51,86.839L326.012,86.839L326.012,89.491L329.645,89.491L329.645,91.155L323.814,91.155L323.814,81.353L329.645,81.353L329.645,83.017L326.012,83.017Z" style="fill:white;fill-rule:nonzero;"/>
                    </g>
                    <g transform="matrix(0.874408,0,0,0.874408,22.9076,29.3827)">
                        <path d="M336.324,89.491L339.434,89.491L339.434,91.155L334.126,91.155L334.126,81.353L336.324,81.353L336.324,89.491Z" style="fill:white;fill-rule:nonzero;"/>
                    </g>
                    <g transform="matrix(0.874408,0,0,0.874408,22.9076,29.3827)">
                        <path d="M348.461,83.511C348.042,83.017 347.504,82.705 346.772,82.705C346.07,82.705 345.397,83.173 345.397,83.81C345.397,85.461 349.867,84.773 349.867,88.061C349.867,90.024 348.461,91.415 346.159,91.415C344.604,91.415 343.468,90.635 342.691,89.504L344.111,88.295C344.41,89.049 345.203,89.725 346.144,89.725C347.042,89.725 347.594,89.063 347.594,88.308C347.594,87.294 346.518,87.008 345.636,86.71C344.186,86.189 343.125,85.552 343.125,84.031C343.125,82.406 344.514,81.093 346.414,81.093C347.415,81.093 348.805,81.523 349.493,82.185L348.461,83.511Z" style="fill:white;fill-rule:nonzero;"/>
                    </g>
                    <g transform="matrix(0.874408,0,0,0.874408,22.9076,29.3827)">
                        <path d="M18.948,106.155L22.073,106.155C25.287,106.155 27.53,104.023 27.53,101.267C27.53,98.472 25.347,96.353 22.088,96.353L18.948,96.353L18.948,106.155ZM21.146,98.017L21.505,98.017C24.002,98.017 25.257,99.122 25.257,101.253C25.257,103.191 24.211,104.491 21.505,104.491L21.146,104.491L21.146,98.017Z" style="fill:white;fill-rule:nonzero;"/>
                    </g>
                    <g transform="matrix(0.874408,0,0,0.874408,22.9076,29.3827)">
                        <path d="M33.734,98.017L33.734,100.175L37.232,100.175L37.232,101.838L33.734,101.838L33.734,104.491L37.367,104.491L37.367,106.155L31.536,106.155L31.536,96.353L37.367,96.353L37.367,98.017L33.734,98.017Z" style="fill:white;fill-rule:nonzero;"/>
                    </g>
                    <g transform="matrix(0.874408,0,0,0.874408,22.9076,29.3827)">
                        <path d="M51.658,104.491L54.768,104.491L54.768,106.155L49.46,106.155L49.46,96.353L51.658,96.353L51.658,104.491Z" style="fill:white;fill-rule:nonzero;"/>
                    </g>
                    <g transform="matrix(0.874408,0,0,0.874408,22.9076,29.3827)">
                        <path d="M60.396,96.288L58.243,100.188L56.853,100.045L58.482,96.093L60.396,96.288Z" style="fill:white;fill-rule:nonzero;"/>
                    </g>
                    <g transform="matrix(0.874408,0,0,0.874408,22.9076,29.3827)">
                        <path d="M70.785,104.087L71.652,106.155L73.999,106.155L69.723,96.093L68.019,96.093L63.624,106.155L65.941,106.155L66.868,104.087L70.785,104.087ZM70.172,102.528L67.496,102.528L68.736,98.966L68.767,98.966L70.172,102.528Z" style="fill:white;fill-rule:nonzero;"/>
                    </g>
                    <g transform="matrix(0.874408,0,0,0.874408,22.9076,29.3827)">
                        <path d="M77.539,96.353L79.736,96.353L79.736,101.838C79.736,103.047 79.856,104.751 81.725,104.751C83.594,104.751 83.713,103.047 83.713,101.838L83.713,96.353L85.911,96.353L85.911,102.215C85.911,104.608 84.745,106.415 81.725,106.415C78.705,106.415 77.539,104.608 77.539,102.215L77.539,96.353Z" style="fill:white;fill-rule:nonzero;"/>
                    </g>
                    <g transform="matrix(0.874408,0,0,0.874408,22.9076,29.3827)">
                        <path d="M94.057,106.155L91.859,106.155L91.859,98.017L89.587,98.017L89.587,96.353L96.33,96.353L96.33,98.017L94.057,98.017L94.057,106.155Z" style="fill:white;fill-rule:nonzero;"/>
                    </g>
                    <g transform="matrix(0.874408,0,0,0.874408,22.9076,29.3827)">
                        <path d="M105.104,106.415C108.394,106.415 110.681,104.048 110.681,101.241C110.681,98.498 108.394,96.093 105.104,96.093C101.816,96.093 99.528,98.498 99.528,101.241C99.528,104.048 101.816,106.415 105.104,106.415ZM105.104,97.978C107.033,97.978 108.409,99.577 108.409,101.163C108.409,102.645 106.974,104.53 105.104,104.53C103.236,104.53 101.801,102.645 101.801,101.163C101.801,99.577 103.176,97.978 105.104,97.978Z" style="fill:white;fill-rule:nonzero;"/>
                    </g>
                    <g transform="matrix(0.874408,0,0,0.874408,22.9076,29.3827)">
                        <path d="M123.104,100.071L123.074,100.071L120.518,106.285L119.755,106.285L117.289,100.071L117.259,100.071L116.257,106.155L114.044,106.155L115.943,96.093L117.498,96.093L120.279,102.554L122.94,96.093L124.524,96.093L126.214,106.155L124.001,106.155L123.104,100.071Z" style="fill:white;fill-rule:nonzero;"/>
                    </g>
                    <g transform="matrix(0.874408,0,0,0.874408,22.9076,29.3827)">
                        <path d="M135.153,106.415C138.442,106.415 140.729,104.048 140.729,101.241C140.729,98.498 138.442,96.093 135.153,96.093C131.864,96.093 129.576,98.498 129.576,101.241C129.576,104.048 131.864,106.415 135.153,106.415ZM135.153,97.978C137.082,97.978 138.457,99.577 138.457,101.163C138.457,102.645 137.022,104.53 135.153,104.53C133.284,104.53 131.849,102.645 131.849,101.163C131.849,99.577 133.225,97.978 135.153,97.978Z" style="fill:white;fill-rule:nonzero;"/>
                    </g>
                    <g transform="matrix(0.874408,0,0,0.874408,22.9076,29.3827)">
                        <path d="M146.933,97.887L147.217,97.887C148.144,97.887 148.802,98.148 148.802,99.148C148.802,100.162 148.279,100.435 147.203,100.435L146.933,100.435L146.933,97.887ZM144.736,106.155L148.189,106.155C150.237,106.155 151.792,105.296 151.792,103.373C151.792,102.294 151.194,101.124 149.864,100.916C150.566,100.526 150.85,99.72 150.85,99.018C150.85,97.068 149.564,96.353 147.472,96.353L144.736,96.353L144.736,106.155ZM146.933,101.891L147.292,101.891C148.398,101.891 149.594,101.943 149.594,103.216C149.594,104.491 148.578,104.621 147.397,104.621L146.933,104.621L146.933,101.891Z" style="fill:white;fill-rule:nonzero;"/>
                    </g>
                    <g transform="matrix(0.874408,0,0,0.874408,22.9076,29.3827)">
                        <rect x="155.933" y="96.353" width="2.197" height="9.802" style="fill:white;fill-rule:nonzero;"/>
                    </g>
                    <g transform="matrix(0.874408,0,0,0.874408,22.9076,29.3827)">
                        <path d="M164.856,104.491L167.966,104.491L167.966,106.155L162.659,106.155L162.659,96.353L164.856,96.353L164.856,104.491Z" style="fill:white;fill-rule:nonzero;"/>
                    </g>
                    <g transform="matrix(0.874408,0,0,0.874408,22.9076,29.3827)">
                        <path d="M173.794,98.017L173.794,100.175L177.293,100.175L177.293,101.838L173.794,101.838L173.794,104.491L177.427,104.491L177.427,106.155L171.597,106.155L171.597,96.353L177.427,96.353L177.427,98.017L173.794,98.017Z" style="fill:white;fill-rule:nonzero;"/>
                    </g>
                    <g transform="matrix(0.874408,0,0,0.874408,22.9076,29.3827)">
                        <path d="M191.782,98.017L191.782,100.175L195.28,100.175L195.28,101.838L191.782,101.838L191.782,104.491L195.415,104.491L195.415,106.155L189.584,106.155L189.584,96.353L195.415,96.353L195.415,98.017L191.782,98.017Z" style="fill:white;fill-rule:nonzero;"/>
                    </g>
                    <g transform="matrix(0.874408,0,0,0.874408,22.9076,29.3827)">
                        <path d="M203.469,106.155L201.272,106.155L201.272,98.017L199,98.017L199,96.353L205.742,96.353L205.742,98.017L203.469,98.017L203.469,106.155Z" style="fill:white;fill-rule:nonzero;"/>
                    </g>
                    <g transform="matrix(0.874408,0,0,0.874408,22.9076,29.3827)">
                        <path d="M217.18,106.155L220.304,106.155C223.519,106.155 225.761,104.023 225.761,101.267C225.761,98.472 223.579,96.353 220.32,96.353L217.18,96.353L217.18,106.155ZM219.377,98.017L219.736,98.017C222.233,98.017 223.489,99.122 223.489,101.253C223.489,103.191 222.442,104.491 219.736,104.491L219.377,104.491L219.377,98.017Z" style="fill:white;fill-rule:nonzero;"/>
                    </g>
                    <g transform="matrix(0.874408,0,0,0.874408,22.9076,29.3827)">
                        <path d="M231.965,98.017L231.965,100.175L235.463,100.175L235.463,101.838L231.965,101.838L231.965,104.491L235.598,104.491L235.598,106.155L229.768,106.155L229.768,96.353L235.598,96.353L235.598,98.017L231.965,98.017Z" style="fill:white;fill-rule:nonzero;"/>
                    </g>
                    <g transform="matrix(0.874408,0,0,0.874408,22.9076,29.3827)">
                        <path d="M249.889,104.491L252.999,104.491L252.999,106.155L247.692,106.155L247.692,96.353L249.889,96.353L249.889,104.491Z" style="fill:white;fill-rule:nonzero;"/>
                    </g>
                    <g transform="matrix(0.874408,0,0,0.874408,22.9076,29.3827)">
                        <path d="M258.838,96.294L256.687,100.194L255.296,100.051L256.926,96.099L258.838,96.294Z" style="fill:white;fill-rule:nonzero;"/>
                    </g>
                    <g transform="matrix(0.874408,0,0,0.874408,22.9076,29.3827)">
                        <path d="M265.207,98.023L265.207,100.181L268.706,100.181L268.706,101.844L265.207,101.844L265.207,104.497L268.839,104.497L268.839,106.161L263.009,106.161L263.009,96.359L268.839,96.359L268.839,98.023L265.207,98.023ZM267.509,93.486L265.251,95.436L264.19,94.864L265.984,92.68L267.509,93.486Z" style="fill:white;fill-rule:nonzero;"/>
                    </g>
                    <g transform="matrix(0.874408,0,0,0.874408,22.9076,29.3827)">
                        <path d="M280.767,98.959C280.154,98.309 279.227,97.919 278.285,97.919C276.177,97.919 274.966,99.609 274.966,101.298C274.966,102.95 276.222,104.601 278.27,104.601C279.212,104.601 280.154,104.171 280.767,103.561L280.767,105.836C279.945,106.173 279.123,106.42 278.21,106.42C275.041,106.42 272.694,104.042 272.694,101.337C272.694,98.556 274.952,96.099 278.255,96.099C279.137,96.099 280.004,96.307 280.767,96.671L280.767,98.959Z" style="fill:white;fill-rule:nonzero;"/>
                    </g>
                    <g transform="matrix(0.874408,0,0,0.874408,22.9076,29.3827)">
                        <path d="M290.183,106.42C293.472,106.42 295.759,104.054 295.759,101.247C295.759,98.504 293.472,96.099 290.183,96.099C286.894,96.099 284.606,98.504 284.606,101.247C284.606,104.054 286.894,106.42 290.183,106.42ZM290.183,97.984C292.112,97.984 293.487,99.583 293.487,101.169C293.487,102.651 292.051,104.536 290.183,104.536C288.314,104.536 286.878,102.651 286.878,101.169C286.878,99.583 288.254,97.984 290.183,97.984Z" style="fill:white;fill-rule:nonzero;"/>
                    </g>
                    <g transform="matrix(0.874408,0,0,0.874408,22.9076,29.3827)">
                        <path d="M301.963,104.497L305.073,104.497L305.073,106.161L299.765,106.161L299.765,96.359L301.963,96.359L301.963,104.497Z" style="fill:white;fill-rule:nonzero;"/>
                    </g>
                    <g transform="matrix(0.874408,0,0,0.874408,22.9076,29.3827)">
                        <path d="M313.742,106.42C317.031,106.42 319.318,104.054 319.318,101.247C319.318,98.504 317.031,96.099 313.742,96.099C310.453,96.099 308.166,98.504 308.166,101.247C308.166,104.054 310.453,106.42 313.742,106.42ZM313.742,97.984C315.67,97.984 317.045,99.583 317.045,101.169C317.045,102.651 315.61,104.536 313.742,104.536C311.873,104.536 310.438,102.651 310.438,101.169C310.438,99.583 311.813,97.984 313.742,97.984Z" style="fill:white;fill-rule:nonzero;"/>
                    </g>
                    <g transform="matrix(0.874408,0,0,0.874408,22.9076,29.3827)">
                        <path d="M333.281,100.948L333.281,101.195C333.281,103.963 331.652,106.42 328.153,106.42C324.864,106.42 322.786,104.003 322.786,101.298C322.786,98.504 324.924,96.099 328.288,96.099C330.202,96.099 331.875,96.944 332.743,98.439L330.799,99.349C330.351,98.465 329.394,97.789 328.228,97.789C326.105,97.789 325.058,99.674 325.058,101.298C325.058,102.923 326.12,104.731 328.243,104.731C329.619,104.731 330.769,103.691 330.814,102.507L328.422,102.507L328.422,100.948L333.281,100.948Z" style="fill:white;fill-rule:nonzero;"/>
                    </g>
                    <g transform="matrix(0.874408,0,0,0.874408,22.9076,29.3827)">
                        <rect x="337.299" y="96.359" width="2.198" height="9.802" style="fill:white;fill-rule:nonzero;"/>
                    </g>
                    <g transform="matrix(0.874408,0,0,0.874408,22.9076,29.3827)">
                        <path d="M346.223,98.023L346.223,100.181L349.721,100.181L349.721,101.844L346.223,101.844L346.223,104.497L349.856,104.497L349.856,106.161L344.025,106.161L344.025,96.359L349.856,96.359L349.856,98.023L346.223,98.023Z" style="fill:white;fill-rule:nonzero;"/>
                    </g>
                </g>
            </g>
        </g>
    </g>
</svg>
